<?xml version="1.0" encoding="UTF-8"?>
<svg xmlns="http://www.w3.org/2000/svg" xmlns:xlink="http://www.w3.org/1999/xlink" viewBox="0 0 70 70" width="70px" height="70px">
<g id="surface16418704">
<path style=" stroke:none;fill-rule:nonzero;fill:rgb(0%,0%,0%);fill-opacity:1;" d="M 64.167969 35 C 64.167969 51.105469 51.105469 64.167969 35 64.167969 C 18.894531 64.167969 5.832031 51.105469 5.832031 35 C 5.832031 18.894531 18.894531 5.832031 35 5.832031 C 51.105469 5.832031 64.167969 18.894531 64.167969 35 Z M 64.167969 35 "/>
<path style=" stroke:none;fill-rule:nonzero;fill:rgb(90.980393%,97.647059%,99.215686%);fill-opacity:1;" d="M 59.792969 35 C 59.792969 48.695312 48.695312 59.792969 35 59.792969 C 21.304688 59.792969 10.207031 48.695312 10.207031 35 C 10.207031 21.304688 21.304688 10.207031 35 10.207031 C 48.695312 10.207031 59.792969 21.304688 59.792969 35 Z M 59.792969 35 "/>
<path style=" stroke:none;fill-rule:nonzero;fill:rgb(100%,11.764706%,0%);fill-opacity:1;" d="M 51.085938 18.914062 C 41.898438 18.988281 32.738281 25.789062 28.148438 30.386719 C 23.527344 30.386719 16.601562 32.691406 14.292969 37.3125 C 16.5625 37.3125 21.898438 37.3125 25.839844 37.3125 L 23.527344 41.925781 L 28.074219 46.546875 L 32.691406 44.238281 C 32.691406 48.175781 32.691406 53.511719 32.691406 55.785156 C 37.3125 53.472656 39.621094 46.546875 39.621094 41.933594 C 44.210938 37.335938 51.015625 28.175781 51.085938 18.992188 L 51.167969 18.914062 C 51.136719 18.914062 51.117188 18.914062 51.085938 18.914062 Z M 41.925781 30.378906 C 40.652344 30.378906 39.621094 29.347656 39.621094 28.074219 C 39.621094 26.796875 40.652344 25.765625 41.925781 25.765625 C 43.203125 25.765625 44.234375 26.796875 44.234375 28.074219 C 44.234375 29.347656 43.203125 30.378906 41.925781 30.378906 Z M 41.925781 30.378906 "/>
<path style=" stroke:none;fill-rule:nonzero;fill:rgb(100%,11.764706%,0%);fill-opacity:1;" d="M 26.703125 47.496094 L 26.265625 47.054688 C 26.265625 47.054688 24.613281 48.410156 21.621094 48.410156 L 21.59375 48.402344 L 21.59375 48.375 C 21.59375 45.382812 22.949219 43.730469 22.949219 43.730469 L 22.503906 43.285156 C 22.503906 43.285156 18.847656 44.710938 18.839844 51.148438 L 18.828125 51.160156 C 18.835938 51.160156 18.839844 51.160156 18.839844 51.160156 C 25.289062 51.15625 26.703125 47.496094 26.703125 47.496094 Z M 26.703125 47.496094 "/>
</g>
</svg>
