<?xml version="1.0" encoding="UTF-8"?>
<svg xmlns="http://www.w3.org/2000/svg" xmlns:xlink="http://www.w3.org/1999/xlink" viewBox="0 0 500 500" width="500px" height="500px">
<g id="surface16478212">
<path style=" stroke:none;fill-rule:nonzero;fill:rgb(0%,0%,0%);fill-opacity:1;" d="M 458.332031 250 C 458.332031 365.042969 365.042969 458.332031 250 458.332031 C 134.957031 458.332031 41.667969 365.042969 41.667969 250 C 41.667969 134.957031 134.957031 41.667969 250 41.667969 C 365.042969 41.667969 458.332031 134.957031 458.332031 250 Z M 458.332031 250 "/>
<path style=" stroke:none;fill-rule:nonzero;fill:rgb(90.980393%,97.647059%,99.215686%);fill-opacity:1;" d="M 427.082031 250 C 427.082031 347.824219 347.824219 427.082031 250 427.082031 C 152.175781 427.082031 72.917969 347.824219 72.917969 250 C 72.917969 152.175781 152.175781 72.917969 250 72.917969 C 347.824219 72.917969 427.082031 152.175781 427.082031 250 Z M 427.082031 250 "/>
<path style=" stroke:none;fill-rule:nonzero;fill:rgb(100%,11.764706%,0%);fill-opacity:1;" d="M 364.90625 135.09375 C 299.269531 135.625 233.84375 184.207031 201.050781 217.042969 C 168.050781 217.042969 118.574219 233.519531 102.09375 266.519531 C 118.292969 266.519531 156.417969 266.519531 184.574219 266.519531 L 168.050781 299.480469 L 200.519531 332.480469 L 233.519531 316 C 233.519531 344.113281 233.519531 382.238281 233.519531 398.480469 C 266.519531 381.957031 283 332.480469 283 299.519531 C 315.792969 266.6875 364.386719 201.25 364.90625 135.667969 L 365.480469 135.09375 C 365.269531 135.09375 365.113281 135.09375 364.90625 135.09375 Z M 299.480469 217 C 290.363281 217 283 209.636719 283 200.519531 C 283 191.40625 290.363281 184.042969 299.480469 184.042969 C 308.59375 184.042969 315.957031 191.40625 315.957031 200.519531 C 315.957031 209.636719 308.59375 217 299.480469 217 Z M 299.480469 217 "/>
<path style=" stroke:none;fill-rule:nonzero;fill:rgb(100%,11.764706%,0%);fill-opacity:1;" d="M 190.75 339.269531 L 187.613281 336.09375 C 187.613281 336.09375 175.8125 345.78125 154.449219 345.78125 L 154.238281 345.738281 L 154.238281 345.53125 C 154.238281 324.167969 163.925781 312.363281 163.925781 312.363281 L 160.75 309.1875 C 160.75 309.1875 134.625 319.363281 134.582031 365.34375 L 134.5 365.425781 C 134.542969 365.425781 134.582031 365.425781 134.582031 365.425781 C 180.625 365.394531 190.75 339.269531 190.75 339.269531 Z M 190.75 339.269531 "/>
</g>
</svg>
